<mxfile host="app.diagrams.net" agent="Mozilla/5.0 (Windows NT 10.0; Win64; x64) AppleWebKit/537.36 (KHTML, like Gecko) Chrome/130.0.0.0 YaBrowser/24.12.0.0 Safari/537.36" version="26.0.11">
  <diagram name="Страница — 1" id="gpWr_UpGiBnp5m3vxDgR">
    <mxGraphModel dx="1050" dy="575" grid="1" gridSize="10" guides="1" tooltips="1" connect="1" arrows="1" fold="1" page="1" pageScale="1" pageWidth="827" pageHeight="1169" math="0" shadow="0">
      <root>
        <mxCell id="0" />
        <mxCell id="1" parent="0" />
        <mxCell id="teswaAM4gCKs3tfRZDAA-2" style="edgeStyle=orthogonalEdgeStyle;rounded=0;orthogonalLoop=1;jettySize=auto;html=1;" parent="1" source="teswaAM4gCKs3tfRZDAA-1" target="teswaAM4gCKs3tfRZDAA-3" edge="1">
          <mxGeometry relative="1" as="geometry">
            <mxPoint x="100" y="80" as="targetPoint" />
          </mxGeometry>
        </mxCell>
        <mxCell id="teswaAM4gCKs3tfRZDAA-1" value="начало draw" style="ellipse;whiteSpace=wrap;html=1;" parent="1" vertex="1">
          <mxGeometry x="40" width="120" height="60" as="geometry" />
        </mxCell>
        <mxCell id="teswaAM4gCKs3tfRZDAA-7" style="edgeStyle=orthogonalEdgeStyle;rounded=0;orthogonalLoop=1;jettySize=auto;html=1;" parent="1" source="teswaAM4gCKs3tfRZDAA-3" target="teswaAM4gCKs3tfRZDAA-8" edge="1">
          <mxGeometry relative="1" as="geometry">
            <mxPoint x="100" y="170" as="targetPoint" />
          </mxGeometry>
        </mxCell>
        <mxCell id="teswaAM4gCKs3tfRZDAA-3" value="инициализация angle, step" style="shape=parallelogram;perimeter=parallelogramPerimeter;whiteSpace=wrap;html=1;fixedSize=1;" parent="1" vertex="1">
          <mxGeometry x="40" y="80" width="120" height="60" as="geometry" />
        </mxCell>
        <mxCell id="teswaAM4gCKs3tfRZDAA-5" value="" style="endArrow=none;dashed=1;html=1;rounded=0;" parent="1" target="teswaAM4gCKs3tfRZDAA-6" edge="1">
          <mxGeometry width="50" height="50" relative="1" as="geometry">
            <mxPoint x="150" y="110" as="sourcePoint" />
            <mxPoint x="200" y="110" as="targetPoint" />
          </mxGeometry>
        </mxCell>
        <mxCell id="teswaAM4gCKs3tfRZDAA-6" value="по ссылке" style="strokeWidth=2;html=1;shape=mxgraph.flowchart.annotation_1;align=left;pointerEvents=1;" parent="1" vertex="1">
          <mxGeometry x="175" y="80" width="50" height="60" as="geometry" />
        </mxCell>
        <mxCell id="teswaAM4gCKs3tfRZDAA-9" style="edgeStyle=orthogonalEdgeStyle;rounded=0;orthogonalLoop=1;jettySize=auto;html=1;entryX=0.5;entryY=0;entryDx=0;entryDy=0;" parent="1" source="teswaAM4gCKs3tfRZDAA-8" target="teswaAM4gCKs3tfRZDAA-12" edge="1">
          <mxGeometry relative="1" as="geometry">
            <mxPoint x="100" y="280" as="targetPoint" />
          </mxGeometry>
        </mxCell>
        <mxCell id="teswaAM4gCKs3tfRZDAA-13" style="edgeStyle=orthogonalEdgeStyle;rounded=0;orthogonalLoop=1;jettySize=auto;html=1;entryX=0.558;entryY=0.027;entryDx=0;entryDy=0;entryPerimeter=0;" parent="1" source="teswaAM4gCKs3tfRZDAA-8" target="teswaAM4gCKs3tfRZDAA-14" edge="1">
          <mxGeometry relative="1" as="geometry">
            <mxPoint x="240" y="280" as="targetPoint" />
            <Array as="points">
              <mxPoint x="100" y="250" />
              <mxPoint x="241" y="250" />
            </Array>
          </mxGeometry>
        </mxCell>
        <mxCell id="teswaAM4gCKs3tfRZDAA-20" style="edgeStyle=orthogonalEdgeStyle;rounded=0;orthogonalLoop=1;jettySize=auto;html=1;entryX=0.5;entryY=0;entryDx=0;entryDy=0;" parent="1" source="teswaAM4gCKs3tfRZDAA-8" target="teswaAM4gCKs3tfRZDAA-17" edge="1">
          <mxGeometry relative="1" as="geometry">
            <Array as="points">
              <mxPoint x="100" y="250" />
              <mxPoint x="355" y="250" />
            </Array>
          </mxGeometry>
        </mxCell>
        <mxCell id="teswaAM4gCKs3tfRZDAA-23" style="edgeStyle=orthogonalEdgeStyle;rounded=0;orthogonalLoop=1;jettySize=auto;html=1;exitX=0.5;exitY=1;exitDx=0;exitDy=0;" parent="1" source="teswaAM4gCKs3tfRZDAA-8" edge="1">
          <mxGeometry relative="1" as="geometry">
            <mxPoint x="480" y="310" as="targetPoint" />
            <Array as="points">
              <mxPoint x="100" y="250" />
              <mxPoint x="481" y="250" />
            </Array>
          </mxGeometry>
        </mxCell>
        <mxCell id="teswaAM4gCKs3tfRZDAA-8" value="angle=" style="rhombus;whiteSpace=wrap;html=1;" parent="1" vertex="1">
          <mxGeometry x="40" y="160" width="120" height="50" as="geometry" />
        </mxCell>
        <mxCell id="teswaAM4gCKs3tfRZDAA-11" value="0" style="text;html=1;align=center;verticalAlign=middle;whiteSpace=wrap;rounded=0;" parent="1" vertex="1">
          <mxGeometry x="100" y="280" width="60" height="30" as="geometry" />
        </mxCell>
        <mxCell id="teswaAM4gCKs3tfRZDAA-26" style="edgeStyle=orthogonalEdgeStyle;rounded=0;orthogonalLoop=1;jettySize=auto;html=1;" parent="1" source="teswaAM4gCKs3tfRZDAA-12" edge="1">
          <mxGeometry relative="1" as="geometry">
            <mxPoint x="100" y="440" as="targetPoint" />
          </mxGeometry>
        </mxCell>
        <mxCell id="teswaAM4gCKs3tfRZDAA-12" value="LineRel(Step, 0)" style="shape=parallelogram;perimeter=parallelogramPerimeter;whiteSpace=wrap;html=1;fixedSize=1;" parent="1" vertex="1">
          <mxGeometry x="40" y="310" width="120" height="60" as="geometry" />
        </mxCell>
        <mxCell id="teswaAM4gCKs3tfRZDAA-27" style="edgeStyle=orthogonalEdgeStyle;rounded=0;orthogonalLoop=1;jettySize=auto;html=1;" parent="1" source="teswaAM4gCKs3tfRZDAA-14" edge="1">
          <mxGeometry relative="1" as="geometry">
            <mxPoint x="100" y="440" as="targetPoint" />
            <Array as="points">
              <mxPoint x="235" y="410" />
              <mxPoint x="101" y="410" />
            </Array>
          </mxGeometry>
        </mxCell>
        <mxCell id="teswaAM4gCKs3tfRZDAA-14" value="LineRel(0, Step)" style="shape=parallelogram;perimeter=parallelogramPerimeter;whiteSpace=wrap;html=1;fixedSize=1;" parent="1" vertex="1">
          <mxGeometry x="175" y="310" width="120" height="60" as="geometry" />
        </mxCell>
        <mxCell id="teswaAM4gCKs3tfRZDAA-15" value="1,-3" style="text;html=1;align=center;verticalAlign=middle;whiteSpace=wrap;rounded=0;" parent="1" vertex="1">
          <mxGeometry x="235" y="280" width="60" height="30" as="geometry" />
        </mxCell>
        <mxCell id="teswaAM4gCKs3tfRZDAA-28" style="edgeStyle=orthogonalEdgeStyle;rounded=0;orthogonalLoop=1;jettySize=auto;html=1;" parent="1" source="teswaAM4gCKs3tfRZDAA-17" edge="1">
          <mxGeometry relative="1" as="geometry">
            <mxPoint x="100" y="440" as="targetPoint" />
            <Array as="points">
              <mxPoint x="355" y="410" />
              <mxPoint x="101" y="410" />
            </Array>
          </mxGeometry>
        </mxCell>
        <mxCell id="teswaAM4gCKs3tfRZDAA-17" value="LineRel(-Step, 0)" style="shape=parallelogram;perimeter=parallelogramPerimeter;whiteSpace=wrap;html=1;fixedSize=1;" parent="1" vertex="1">
          <mxGeometry x="295" y="310" width="120" height="60" as="geometry" />
        </mxCell>
        <mxCell id="teswaAM4gCKs3tfRZDAA-21" value="2,-2" style="text;html=1;align=center;verticalAlign=middle;whiteSpace=wrap;rounded=0;" parent="1" vertex="1">
          <mxGeometry x="350" y="280" width="60" height="30" as="geometry" />
        </mxCell>
        <mxCell id="teswaAM4gCKs3tfRZDAA-29" style="edgeStyle=orthogonalEdgeStyle;rounded=0;orthogonalLoop=1;jettySize=auto;html=1;" parent="1" source="teswaAM4gCKs3tfRZDAA-24" edge="1">
          <mxGeometry relative="1" as="geometry">
            <mxPoint x="100" y="440" as="targetPoint" />
            <Array as="points">
              <mxPoint x="480" y="410" />
              <mxPoint x="101" y="410" />
            </Array>
          </mxGeometry>
        </mxCell>
        <mxCell id="teswaAM4gCKs3tfRZDAA-24" value="LineRel(0, -Step)" style="shape=parallelogram;perimeter=parallelogramPerimeter;whiteSpace=wrap;html=1;fixedSize=1;" parent="1" vertex="1">
          <mxGeometry x="420" y="310" width="120" height="60" as="geometry" />
        </mxCell>
        <mxCell id="teswaAM4gCKs3tfRZDAA-25" value="3,-1" style="text;html=1;align=center;verticalAlign=middle;whiteSpace=wrap;rounded=0;" parent="1" vertex="1">
          <mxGeometry x="480" y="280" width="60" height="30" as="geometry" />
        </mxCell>
        <mxCell id="teswaAM4gCKs3tfRZDAA-30" value="конец draw" style="ellipse;whiteSpace=wrap;html=1;" parent="1" vertex="1">
          <mxGeometry x="40" y="440" width="120" height="60" as="geometry" />
        </mxCell>
      </root>
    </mxGraphModel>
  </diagram>
</mxfile>
